<svg width="139" height="34" viewBox="0 0 139 34" fill="none" xmlns="http://www.w3.org/2000/svg">
<path d="M1.05 16.598C1.05 19.986 2.03 22.6367 3.99 24.55C5.95 26.454 8.39067 27.406 11.312 27.406C12.964 27.406 14.4713 27.0747 15.834 26.412C17.206 25.7493 18.326 24.8113 19.194 23.598L18.088 22.66C17.5 23.5467 16.66 24.284 15.568 24.872C14.476 25.46 13.1647 25.754 11.634 25.754C9.31 25.754 7.41533 24.9327 5.95 23.29C4.48467 21.638 3.74267 19.2627 3.724 16.164C3.70533 13.2053 4.38667 10.9793 5.768 9.486C7.14933 7.98333 9.02533 7.232 11.396 7.232C12.376 7.232 13.3 7.39067 14.168 7.708C15.036 8.016 15.7547 8.464 16.324 9.052L17.724 7.582C16.9213 6.994 15.9553 6.53667 14.826 6.21C13.706 5.88333 12.544 5.72 11.34 5.72C8.344 5.72 5.88 6.75133 3.948 8.814C2.016 10.8673 1.05 13.462 1.05 16.598ZM15.68 8.478L16.59 12.44H17.892V6.182H16.8L15.68 8.478ZM20.3273 16.668C20.3273 19.8787 21.2747 22.4733 23.1693 24.452C25.064 26.4307 27.4767 27.42 30.4073 27.42C33.422 27.42 35.8393 26.3747 37.6593 24.284C39.4793 22.184 40.3893 19.58 40.3893 16.472C40.3893 13.2053 39.47 10.5967 37.6313 8.646C35.7927 6.69533 33.3707 5.72 30.3653 5.72C27.36 5.72 24.9333 6.756 23.0853 8.828C21.2467 10.9 20.3273 13.5133 20.3273 16.668ZM23.0013 16.178C23.0013 13.3407 23.6313 11.1567 24.8913 9.626C26.1607 8.086 27.99 7.316 30.3793 7.316C32.61 7.316 34.388 8.16533 35.7133 9.864C37.048 11.5627 37.7153 13.7887 37.7153 16.542C37.7153 19.6033 37.09 21.932 35.8393 23.528C34.598 25.1147 32.778 25.908 30.3793 25.908C28.186 25.908 26.408 25.0213 25.0453 23.248C23.6827 21.4653 23.0013 19.1087 23.0013 16.178ZM42.5038 27H50.6238V25.852L47.7678 25.348L47.7398 16.458L47.7958 7.624L48.1878 7.358H50.5958C51.7998 7.358 52.6724 7.666 53.2138 8.282C53.7551 8.898 54.0258 9.78933 54.0258 10.956C54.0258 12.272 53.7131 13.3173 53.0878 14.092C52.4718 14.8667 51.4731 15.254 50.0918 15.254H48.1038L46.5778 15.24V16.332C47.0818 16.3693 47.8098 16.4113 48.7618 16.458C49.7231 16.4953 50.5118 16.514 51.1278 16.514C52.6584 16.514 53.9791 15.9913 55.0898 14.946C56.2098 13.8913 56.7698 12.5193 56.7698 10.83C56.7698 9.29 56.3078 8.1 55.3838 7.26C54.4691 6.42 53.0504 6 51.1278 6H42.5038V7.302L45.2478 7.778L45.2758 16.444L45.2478 25.348L42.5038 25.852V27ZM49.9378 16.332L56.1118 26.104L57.0358 27H60.5638V25.852C60.0504 25.8427 59.4718 25.6373 58.8278 25.236C58.1931 24.8253 57.4604 23.99 56.6298 22.73L51.9678 15.268L49.9378 16.332ZM59.7909 27H66.7209V25.852L64.1029 25.432L65.8949 19.804L69.7309 9.192L73.7769 19.86L75.6109 25.418L73.2309 25.852V27H80.7069V25.852L78.3409 25.362L75.8209 18.74L71.0889 5.888H69.3809L64.5929 19.412L62.3389 25.362L59.7909 25.852V27ZM64.9709 20.448H75.1209L74.7569 19.048L70.2069 19.202L65.4609 19.062L64.9709 20.448ZM81.3866 27H96.5486L97.2486 21.26H95.8626L94.3646 25.754H87.3786L86.6506 25.39L86.6226 16.444L86.6506 7.778L89.8566 7.302V6H81.3866V7.302L84.1306 7.778L84.1586 16.444L84.1306 25.404L81.3866 25.852V27Z" fill="black"/>
<path d="M108.354 17.5L115.5 10.3536L122.646 17.5L115.5 24.6464L108.354 17.5Z" stroke="black" stroke-width="0.5"/>
<path d="M116.354 17.5L123.5 10.3536L130.646 17.5L123.5 24.6464L116.354 17.5Z" stroke="black" stroke-width="0.5"/>
<path d="M124.354 17.5L131.5 10.3536L138.646 17.5L131.5 24.6464L124.354 17.5Z" stroke="black" stroke-width="0.5"/>
</svg>
